<mxfile host="app.diagrams.net" modified="2022-02-10T17:42:03.811Z" agent="5.0 (Windows NT 10.0; Win64; x64) AppleWebKit/537.36 (KHTML, like Gecko) Chrome/97.0.4692.99 Safari/537.36" etag="yY6PwXCxfypaYeRZ_3cS" version="14.9.4" type="github">
  <diagram id="xm8SkiyEYQ-gvlMjGlP2" name="Page-1">
    <mxGraphModel dx="1422" dy="762" grid="1" gridSize="10" guides="1" tooltips="1" connect="1" arrows="1" fold="1" page="1" pageScale="1" pageWidth="1600" pageHeight="900" math="0" shadow="0">
      <root>
        <mxCell id="0" />
        <mxCell id="1" parent="0" />
        <mxCell id="JF5sxjFDkmPsiZyV_1A--13" value="" style="whiteSpace=wrap;html=1;aspect=fixed;" vertex="1" parent="1">
          <mxGeometry x="820" y="150" width="390" height="390" as="geometry" />
        </mxCell>
        <mxCell id="JF5sxjFDkmPsiZyV_1A--1" value="虚拟机器人" style="swimlane;fontStyle=0;childLayout=stackLayout;horizontal=1;startSize=26;horizontalStack=0;resizeParent=1;resizeParentMax=0;resizeLast=0;collapsible=1;marginBottom=0;" vertex="1" parent="1">
          <mxGeometry x="490" y="150" width="140" height="130" as="geometry">
            <mxRectangle x="200" y="150" width="90" height="26" as="alternateBounds" />
          </mxGeometry>
        </mxCell>
        <mxCell id="JF5sxjFDkmPsiZyV_1A--12" value="获取NFT信息" style="text;strokeColor=none;fillColor=none;align=left;verticalAlign=top;spacingLeft=4;spacingRight=4;overflow=hidden;rotatable=0;points=[[0,0.5],[1,0.5]];portConstraint=eastwest;" vertex="1" parent="JF5sxjFDkmPsiZyV_1A--1">
          <mxGeometry y="26" width="140" height="26" as="geometry" />
        </mxCell>
        <mxCell id="JF5sxjFDkmPsiZyV_1A--2" value="获取随机数据" style="text;strokeColor=none;fillColor=none;align=left;verticalAlign=top;spacingLeft=4;spacingRight=4;overflow=hidden;rotatable=0;points=[[0,0.5],[1,0.5]];portConstraint=eastwest;" vertex="1" parent="JF5sxjFDkmPsiZyV_1A--1">
          <mxGeometry y="52" width="140" height="26" as="geometry" />
        </mxCell>
        <mxCell id="JF5sxjFDkmPsiZyV_1A--3" value="挖矿计算" style="text;strokeColor=none;fillColor=none;align=left;verticalAlign=top;spacingLeft=4;spacingRight=4;overflow=hidden;rotatable=0;points=[[0,0.5],[1,0.5]];portConstraint=eastwest;" vertex="1" parent="JF5sxjFDkmPsiZyV_1A--1">
          <mxGeometry y="78" width="140" height="26" as="geometry" />
        </mxCell>
        <mxCell id="JF5sxjFDkmPsiZyV_1A--6" value="上传计算结果" style="text;strokeColor=none;fillColor=none;align=left;verticalAlign=top;spacingLeft=4;spacingRight=4;overflow=hidden;rotatable=0;points=[[0,0.5],[1,0.5]];portConstraint=eastwest;" vertex="1" parent="JF5sxjFDkmPsiZyV_1A--1">
          <mxGeometry y="104" width="140" height="26" as="geometry" />
        </mxCell>
        <mxCell id="JF5sxjFDkmPsiZyV_1A--7" value="NFT" style="swimlane;fontStyle=0;childLayout=stackLayout;horizontal=1;startSize=26;horizontalStack=0;resizeParent=1;resizeParentMax=0;resizeLast=0;collapsible=1;marginBottom=0;" vertex="1" parent="1">
          <mxGeometry x="820" y="202" width="190" height="130" as="geometry" />
        </mxCell>
        <mxCell id="JF5sxjFDkmPsiZyV_1A--8" value="创建矿池" style="text;strokeColor=none;fillColor=none;align=left;verticalAlign=top;spacingLeft=4;spacingRight=4;overflow=hidden;rotatable=0;points=[[0,0.5],[1,0.5]];portConstraint=eastwest;" vertex="1" parent="JF5sxjFDkmPsiZyV_1A--7">
          <mxGeometry y="26" width="190" height="26" as="geometry" />
        </mxCell>
        <mxCell id="JF5sxjFDkmPsiZyV_1A--9" value="加入矿池" style="text;strokeColor=none;fillColor=none;align=left;verticalAlign=top;spacingLeft=4;spacingRight=4;overflow=hidden;rotatable=0;points=[[0,0.5],[1,0.5]];portConstraint=eastwest;" vertex="1" parent="JF5sxjFDkmPsiZyV_1A--7">
          <mxGeometry y="52" width="190" height="26" as="geometry" />
        </mxCell>
        <mxCell id="JF5sxjFDkmPsiZyV_1A--38" value="跟比较挖矿结果，胜者获得AIT" style="text;strokeColor=none;fillColor=none;align=left;verticalAlign=top;spacingLeft=4;spacingRight=4;overflow=hidden;rotatable=0;points=[[0,0.5],[1,0.5]];portConstraint=eastwest;" vertex="1" parent="JF5sxjFDkmPsiZyV_1A--7">
          <mxGeometry y="78" width="190" height="26" as="geometry" />
        </mxCell>
        <mxCell id="JF5sxjFDkmPsiZyV_1A--45" value="改变所有者等标准NFT接口实现" style="text;strokeColor=none;fillColor=none;align=left;verticalAlign=top;spacingLeft=4;spacingRight=4;overflow=hidden;rotatable=0;points=[[0,0.5],[1,0.5]];portConstraint=eastwest;" vertex="1" parent="JF5sxjFDkmPsiZyV_1A--7">
          <mxGeometry y="104" width="190" height="26" as="geometry" />
        </mxCell>
        <mxCell id="JF5sxjFDkmPsiZyV_1A--15" value="DAPP" style="text;html=1;strokeColor=none;fillColor=none;align=center;verticalAlign=middle;whiteSpace=wrap;rounded=0;" vertex="1" parent="1">
          <mxGeometry x="820" y="150" width="40" height="20" as="geometry" />
        </mxCell>
        <mxCell id="JF5sxjFDkmPsiZyV_1A--19" style="edgeStyle=orthogonalEdgeStyle;rounded=0;orthogonalLoop=1;jettySize=auto;html=1;exitX=1;exitY=0.5;exitDx=0;exitDy=0;entryX=0.5;entryY=0;entryDx=0;entryDy=0;" edge="1" parent="1" source="JF5sxjFDkmPsiZyV_1A--12" target="JF5sxjFDkmPsiZyV_1A--7">
          <mxGeometry relative="1" as="geometry">
            <mxPoint x="790" y="180" as="targetPoint" />
            <Array as="points">
              <mxPoint x="915" y="189" />
            </Array>
          </mxGeometry>
        </mxCell>
        <mxCell id="JF5sxjFDkmPsiZyV_1A--32" value="" style="endArrow=none;html=1;exitX=1;exitY=0.5;exitDx=0;exitDy=0;" edge="1" parent="1" source="JF5sxjFDkmPsiZyV_1A--2">
          <mxGeometry width="50" height="50" relative="1" as="geometry">
            <mxPoint x="990" y="420" as="sourcePoint" />
            <mxPoint x="730" y="190" as="targetPoint" />
            <Array as="points">
              <mxPoint x="730" y="215" />
            </Array>
          </mxGeometry>
        </mxCell>
        <mxCell id="JF5sxjFDkmPsiZyV_1A--33" value="" style="endArrow=none;html=1;exitX=1;exitY=0.5;exitDx=0;exitDy=0;" edge="1" parent="1">
          <mxGeometry width="50" height="50" relative="1" as="geometry">
            <mxPoint x="630" y="239" as="sourcePoint" />
            <mxPoint x="730" y="214" as="targetPoint" />
            <Array as="points">
              <mxPoint x="730" y="239" />
            </Array>
          </mxGeometry>
        </mxCell>
        <mxCell id="JF5sxjFDkmPsiZyV_1A--34" value="" style="endArrow=none;html=1;exitX=1;exitY=0.5;exitDx=0;exitDy=0;" edge="1" parent="1">
          <mxGeometry width="50" height="50" relative="1" as="geometry">
            <mxPoint x="630" y="264" as="sourcePoint" />
            <mxPoint x="730" y="239" as="targetPoint" />
            <Array as="points">
              <mxPoint x="730" y="264" />
            </Array>
          </mxGeometry>
        </mxCell>
        <mxCell id="JF5sxjFDkmPsiZyV_1A--39" value="OpenSea" style="swimlane;fontStyle=0;childLayout=stackLayout;horizontal=1;startSize=26;horizontalStack=0;resizeParent=1;resizeParentMax=0;resizeLast=0;collapsible=1;marginBottom=0;" vertex="1" parent="1">
          <mxGeometry x="490" y="340" width="140" height="52" as="geometry" />
        </mxCell>
        <mxCell id="JF5sxjFDkmPsiZyV_1A--40" value="NFT交易" style="text;strokeColor=none;fillColor=none;align=left;verticalAlign=top;spacingLeft=4;spacingRight=4;overflow=hidden;rotatable=0;points=[[0,0.5],[1,0.5]];portConstraint=eastwest;" vertex="1" parent="JF5sxjFDkmPsiZyV_1A--39">
          <mxGeometry y="26" width="140" height="26" as="geometry" />
        </mxCell>
        <mxCell id="JF5sxjFDkmPsiZyV_1A--44" value="" style="endArrow=none;html=1;exitX=1;exitY=0.5;exitDx=0;exitDy=0;" edge="1" parent="1" source="JF5sxjFDkmPsiZyV_1A--40">
          <mxGeometry width="50" height="50" relative="1" as="geometry">
            <mxPoint x="990" y="420" as="sourcePoint" />
            <mxPoint x="790" y="190" as="targetPoint" />
            <Array as="points">
              <mxPoint x="790" y="379" />
            </Array>
          </mxGeometry>
        </mxCell>
        <mxCell id="JF5sxjFDkmPsiZyV_1A--46" value="AIT" style="swimlane;fontStyle=0;childLayout=stackLayout;horizontal=1;startSize=26;horizontalStack=0;resizeParent=1;resizeParentMax=0;resizeLast=0;collapsible=1;marginBottom=0;" vertex="1" parent="1">
          <mxGeometry x="820" y="488" width="190" height="52" as="geometry" />
        </mxCell>
        <mxCell id="JF5sxjFDkmPsiZyV_1A--47" value="BEP-20标准接口实现" style="text;strokeColor=none;fillColor=none;align=left;verticalAlign=top;spacingLeft=4;spacingRight=4;overflow=hidden;rotatable=0;points=[[0,0.5],[1,0.5]];portConstraint=eastwest;" vertex="1" parent="JF5sxjFDkmPsiZyV_1A--46">
          <mxGeometry y="26" width="190" height="26" as="geometry" />
        </mxCell>
        <mxCell id="JF5sxjFDkmPsiZyV_1A--50" value="UniSwap" style="swimlane;fontStyle=0;childLayout=stackLayout;horizontal=1;startSize=26;horizontalStack=0;resizeParent=1;resizeParentMax=0;resizeLast=0;collapsible=1;marginBottom=0;" vertex="1" parent="1">
          <mxGeometry x="490" y="436" width="140" height="104" as="geometry" />
        </mxCell>
        <mxCell id="JF5sxjFDkmPsiZyV_1A--51" value="提供流动性" style="text;strokeColor=none;fillColor=none;align=left;verticalAlign=top;spacingLeft=4;spacingRight=4;overflow=hidden;rotatable=0;points=[[0,0.5],[1,0.5]];portConstraint=eastwest;" vertex="1" parent="JF5sxjFDkmPsiZyV_1A--50">
          <mxGeometry y="26" width="140" height="26" as="geometry" />
        </mxCell>
        <mxCell id="JF5sxjFDkmPsiZyV_1A--52" value="购买" style="text;strokeColor=none;fillColor=none;align=left;verticalAlign=top;spacingLeft=4;spacingRight=4;overflow=hidden;rotatable=0;points=[[0,0.5],[1,0.5]];portConstraint=eastwest;" vertex="1" parent="JF5sxjFDkmPsiZyV_1A--50">
          <mxGeometry y="52" width="140" height="26" as="geometry" />
        </mxCell>
        <mxCell id="JF5sxjFDkmPsiZyV_1A--53" value="出售" style="text;strokeColor=none;fillColor=none;align=left;verticalAlign=top;spacingLeft=4;spacingRight=4;overflow=hidden;rotatable=0;points=[[0,0.5],[1,0.5]];portConstraint=eastwest;" vertex="1" parent="JF5sxjFDkmPsiZyV_1A--50">
          <mxGeometry y="78" width="140" height="26" as="geometry" />
        </mxCell>
        <mxCell id="JF5sxjFDkmPsiZyV_1A--55" style="edgeStyle=orthogonalEdgeStyle;rounded=0;orthogonalLoop=1;jettySize=auto;html=1;exitX=1;exitY=0.5;exitDx=0;exitDy=0;entryX=0.5;entryY=0;entryDx=0;entryDy=0;" edge="1" parent="1" source="JF5sxjFDkmPsiZyV_1A--51" target="JF5sxjFDkmPsiZyV_1A--46">
          <mxGeometry relative="1" as="geometry">
            <Array as="points">
              <mxPoint x="630" y="470" />
              <mxPoint x="915" y="470" />
            </Array>
          </mxGeometry>
        </mxCell>
        <mxCell id="JF5sxjFDkmPsiZyV_1A--56" value="" style="endArrow=none;html=1;exitX=1;exitY=0.5;exitDx=0;exitDy=0;" edge="1" parent="1" source="JF5sxjFDkmPsiZyV_1A--52">
          <mxGeometry width="50" height="50" relative="1" as="geometry">
            <mxPoint x="990" y="420" as="sourcePoint" />
            <mxPoint x="790" y="470" as="targetPoint" />
            <Array as="points">
              <mxPoint x="790" y="501" />
            </Array>
          </mxGeometry>
        </mxCell>
        <mxCell id="JF5sxjFDkmPsiZyV_1A--57" value="" style="endArrow=none;html=1;exitX=1;exitY=0.5;exitDx=0;exitDy=0;" edge="1" parent="1" source="JF5sxjFDkmPsiZyV_1A--53">
          <mxGeometry width="50" height="50" relative="1" as="geometry">
            <mxPoint x="990" y="420" as="sourcePoint" />
            <mxPoint x="790" y="490" as="targetPoint" />
            <Array as="points">
              <mxPoint x="790" y="527" />
            </Array>
          </mxGeometry>
        </mxCell>
        <mxCell id="JF5sxjFDkmPsiZyV_1A--59" value="用户" style="shape=umlActor;verticalLabelPosition=bottom;verticalAlign=top;html=1;outlineConnect=0;" vertex="1" parent="1">
          <mxGeometry x="320" y="340" width="30" height="60" as="geometry" />
        </mxCell>
        <mxCell id="JF5sxjFDkmPsiZyV_1A--62" value="" style="endArrow=classic;html=1;entryX=0;entryY=0.5;entryDx=0;entryDy=0;" edge="1" parent="1" target="JF5sxjFDkmPsiZyV_1A--40">
          <mxGeometry width="50" height="50" relative="1" as="geometry">
            <mxPoint x="360" y="379" as="sourcePoint" />
            <mxPoint x="750" y="370" as="targetPoint" />
          </mxGeometry>
        </mxCell>
        <mxCell id="JF5sxjFDkmPsiZyV_1A--63" value="" style="endArrow=classic;html=1;entryX=0;entryY=0.5;entryDx=0;entryDy=0;" edge="1" parent="1" target="JF5sxjFDkmPsiZyV_1A--51">
          <mxGeometry width="50" height="50" relative="1" as="geometry">
            <mxPoint x="330" y="430" as="sourcePoint" />
            <mxPoint x="750" y="370" as="targetPoint" />
            <Array as="points">
              <mxPoint x="330" y="475" />
            </Array>
          </mxGeometry>
        </mxCell>
        <mxCell id="JF5sxjFDkmPsiZyV_1A--64" value="" style="endArrow=classic;html=1;entryX=0;entryY=0.5;entryDx=0;entryDy=0;" edge="1" parent="1" target="JF5sxjFDkmPsiZyV_1A--53">
          <mxGeometry width="50" height="50" relative="1" as="geometry">
            <mxPoint x="330" y="490" as="sourcePoint" />
            <mxPoint x="750" y="370" as="targetPoint" />
            <Array as="points">
              <mxPoint x="330" y="527" />
            </Array>
          </mxGeometry>
        </mxCell>
        <mxCell id="JF5sxjFDkmPsiZyV_1A--66" value="" style="endArrow=classic;html=1;entryX=0;entryY=0.5;entryDx=0;entryDy=0;" edge="1" parent="1" target="JF5sxjFDkmPsiZyV_1A--52">
          <mxGeometry width="50" height="50" relative="1" as="geometry">
            <mxPoint x="330" y="460" as="sourcePoint" />
            <mxPoint x="750" y="370" as="targetPoint" />
            <Array as="points">
              <mxPoint x="330" y="500" />
            </Array>
          </mxGeometry>
        </mxCell>
        <mxCell id="JF5sxjFDkmPsiZyV_1A--67" value="中心化交易所" style="swimlane;fontStyle=0;childLayout=stackLayout;horizontal=1;startSize=26;horizontalStack=0;resizeParent=1;resizeParentMax=0;resizeLast=0;collapsible=1;marginBottom=0;" vertex="1" parent="1">
          <mxGeometry x="490" y="580" width="140" height="52" as="geometry" />
        </mxCell>
        <mxCell id="JF5sxjFDkmPsiZyV_1A--68" value="交易" style="text;strokeColor=none;fillColor=none;align=left;verticalAlign=top;spacingLeft=4;spacingRight=4;overflow=hidden;rotatable=0;points=[[0,0.5],[1,0.5]];portConstraint=eastwest;" vertex="1" parent="JF5sxjFDkmPsiZyV_1A--67">
          <mxGeometry y="26" width="140" height="26" as="geometry" />
        </mxCell>
        <mxCell id="JF5sxjFDkmPsiZyV_1A--71" value="" style="endArrow=classic;html=1;entryX=0;entryY=0.5;entryDx=0;entryDy=0;" edge="1" parent="1" target="JF5sxjFDkmPsiZyV_1A--68">
          <mxGeometry width="50" height="50" relative="1" as="geometry">
            <mxPoint x="330" y="520" as="sourcePoint" />
            <mxPoint x="750" y="370" as="targetPoint" />
            <Array as="points">
              <mxPoint x="330" y="619" />
            </Array>
          </mxGeometry>
        </mxCell>
        <mxCell id="JF5sxjFDkmPsiZyV_1A--73" value="" style="endArrow=none;html=1;exitX=1;exitY=0.5;exitDx=0;exitDy=0;" edge="1" parent="1" source="JF5sxjFDkmPsiZyV_1A--68">
          <mxGeometry width="50" height="50" relative="1" as="geometry">
            <mxPoint x="700" y="420" as="sourcePoint" />
            <mxPoint x="790" y="520" as="targetPoint" />
            <Array as="points">
              <mxPoint x="790" y="619" />
            </Array>
          </mxGeometry>
        </mxCell>
        <mxCell id="JF5sxjFDkmPsiZyV_1A--75" value="管理" style="swimlane;fontStyle=0;childLayout=stackLayout;horizontal=1;startSize=26;horizontalStack=0;resizeParent=1;resizeParentMax=0;resizeLast=0;collapsible=1;marginBottom=0;" vertex="1" parent="1">
          <mxGeometry x="1070" y="202" width="140" height="104" as="geometry" />
        </mxCell>
        <mxCell id="JF5sxjFDkmPsiZyV_1A--76" value="暂停DAPP" style="text;strokeColor=none;fillColor=none;align=left;verticalAlign=top;spacingLeft=4;spacingRight=4;overflow=hidden;rotatable=0;points=[[0,0.5],[1,0.5]];portConstraint=eastwest;" vertex="1" parent="JF5sxjFDkmPsiZyV_1A--75">
          <mxGeometry y="26" width="140" height="26" as="geometry" />
        </mxCell>
        <mxCell id="JF5sxjFDkmPsiZyV_1A--77" value="转让DAPP超管" style="text;strokeColor=none;fillColor=none;align=left;verticalAlign=top;spacingLeft=4;spacingRight=4;overflow=hidden;rotatable=0;points=[[0,0.5],[1,0.5]];portConstraint=eastwest;" vertex="1" parent="JF5sxjFDkmPsiZyV_1A--75">
          <mxGeometry y="52" width="140" height="26" as="geometry" />
        </mxCell>
        <mxCell id="JF5sxjFDkmPsiZyV_1A--78" value="杀死DAPP" style="text;strokeColor=none;fillColor=none;align=left;verticalAlign=top;spacingLeft=4;spacingRight=4;overflow=hidden;rotatable=0;points=[[0,0.5],[1,0.5]];portConstraint=eastwest;" vertex="1" parent="JF5sxjFDkmPsiZyV_1A--75">
          <mxGeometry y="78" width="140" height="26" as="geometry" />
        </mxCell>
        <mxCell id="JF5sxjFDkmPsiZyV_1A--81" style="edgeStyle=orthogonalEdgeStyle;rounded=0;orthogonalLoop=1;jettySize=auto;html=1;entryX=0.5;entryY=0;entryDx=0;entryDy=0;" edge="1" parent="1" target="JF5sxjFDkmPsiZyV_1A--75">
          <mxGeometry relative="1" as="geometry">
            <mxPoint x="1260" y="170" as="sourcePoint" />
          </mxGeometry>
        </mxCell>
        <mxCell id="JF5sxjFDkmPsiZyV_1A--79" value="超管" style="shape=umlActor;verticalLabelPosition=bottom;verticalAlign=top;html=1;outlineConnect=0;" vertex="1" parent="1">
          <mxGeometry x="1270" y="150" width="30" height="60" as="geometry" />
        </mxCell>
      </root>
    </mxGraphModel>
  </diagram>
</mxfile>
